<svg width="151" height="40" viewBox="0 0 151 40" fill="none" xmlns="http://www.w3.org/2000/svg">
<g clip-path="url(#clip0_45_131)">
<path d="M54.1719 12.2109C55.5312 12.2109 56.7891 12.4336 57.9453 12.8789C59.1094 13.3164 60.1406 13.9258 61.0391 14.707L60.3828 15.5742C60.0234 15.2695 59.625 14.9844 59.1875 14.7188C58.75 14.4531 58.2891 14.2266 57.8047 14.0391C57.3203 13.8438 56.8164 13.6914 56.293 13.582C55.7695 13.4648 55.2422 13.4062 54.7109 13.4062C53.5703 13.4062 52.5586 13.6133 51.6758 14.0273C50.793 14.4414 50.0508 15.0078 49.4492 15.7266C48.8477 16.4453 48.3906 17.2852 48.0781 18.2461C47.7656 19.207 47.6094 20.2383 47.6094 21.3398C47.6094 22.418 47.7617 23.4336 48.0664 24.3867C48.3789 25.3398 48.832 26.1758 49.4258 26.8945C50.0273 27.6133 50.7695 28.1836 51.6523 28.6055C52.5352 29.0195 53.5469 29.2266 54.6875 29.2266C55.2344 29.2266 55.7891 29.1719 56.3516 29.0625C56.9141 28.9531 57.457 28.793 57.9805 28.582C58.5039 28.3711 58.9961 28.1133 59.457 27.8086C59.9258 27.5039 60.3398 27.1562 60.6992 26.7656L61.3672 27.6211C60.4453 28.4961 59.375 29.1797 58.1562 29.6719C56.9375 30.1641 55.6094 30.4102 54.1719 30.4102C53.3047 30.4102 52.4727 30.3008 51.6758 30.082C50.8789 29.8711 50.1328 29.5664 49.4375 29.168C48.75 28.7695 48.1211 28.2969 47.5508 27.75C46.9883 27.1953 46.5039 26.582 46.0977 25.9102C45.6992 25.2383 45.3867 24.5195 45.1602 23.7539C44.9414 22.9805 44.832 22.1758 44.832 21.3398C44.832 20.5039 44.9414 19.6953 45.1602 18.9141C45.3867 18.1328 45.6992 17.4062 46.0977 16.7344C46.5039 16.0547 46.9883 15.4375 47.5508 14.8828C48.1211 14.3281 48.75 13.8555 49.4375 13.4648C50.1328 13.0664 50.8789 12.7578 51.6758 12.5391C52.4727 12.3203 53.3047 12.2109 54.1719 12.2109ZM68.0703 18.7383C68.875 18.7383 69.6289 18.8906 70.332 19.1953C71.0352 19.4922 71.6445 19.9023 72.1602 20.4258C72.6836 20.9414 73.0938 21.5508 73.3906 22.2539C73.6875 22.9492 73.8359 23.6914 73.8359 24.4805C73.8359 25.2773 73.6875 26.0273 73.3906 26.7305C73.0938 27.4258 72.6836 28.0352 72.1602 28.5586C71.6445 29.0742 71.0352 29.4844 70.332 29.7891C69.6289 30.0859 68.875 30.2344 68.0703 30.2344C67.2812 30.2344 66.5391 30.0859 65.8438 29.7891C65.1562 29.4844 64.5547 29.0742 64.0391 28.5586C63.5234 28.0352 63.1133 27.4258 62.8086 26.7305C62.5117 26.0273 62.3633 25.2773 62.3633 24.4805C62.3633 23.6914 62.5117 22.9492 62.8086 22.2539C63.1133 21.5508 63.5234 20.9414 64.0391 20.4258C64.5547 19.9023 65.1562 19.4922 65.8438 19.1953C66.5391 18.8906 67.2812 18.7383 68.0703 18.7383ZM68.0469 19.8047C67.4375 19.8047 66.9219 19.9219 66.5 20.1562C66.0859 20.3906 65.75 20.7188 65.4922 21.1406C65.2344 21.5625 65.0469 22.0625 64.9297 22.6406C64.8203 23.2188 64.7656 23.8477 64.7656 24.5273C64.7656 25.1992 64.8242 25.8203 64.9414 26.3906C65.0586 26.9609 65.2461 27.457 65.5039 27.8789C65.7617 28.293 66.0977 28.6172 66.5117 28.8516C66.9336 29.0859 67.4453 29.2031 68.0469 29.2031C68.6484 29.2031 69.1602 29.0859 69.582 28.8516C70.0039 28.6172 70.3477 28.293 70.6133 27.8789C70.8867 27.457 71.082 26.9609 71.1992 26.3906C71.3242 25.8203 71.3867 25.1992 71.3867 24.5273C71.3867 23.8477 71.3242 23.2188 71.1992 22.6406C71.082 22.0625 70.8867 21.5625 70.6133 21.1406C70.3477 20.7188 70.0039 20.3906 69.582 20.1562C69.1602 19.9219 68.6484 19.8047 68.0469 19.8047ZM82.543 30C81.6133 30 80.793 29.9258 80.082 29.7773C79.3789 29.6289 78.7656 29.4219 78.2422 29.1562C77.7266 28.8828 77.293 28.5625 76.9414 28.1953C76.5977 27.8281 76.3203 27.4258 76.1094 26.9883C75.8984 26.543 75.75 26.0742 75.6641 25.582C75.5781 25.0898 75.5352 24.5859 75.5352 24.0703C75.5352 23.3047 75.6484 22.5977 75.875 21.9492C76.1094 21.293 76.4609 20.7305 76.9297 20.2617C77.4062 19.7852 78.0039 19.4141 78.7227 19.1484C79.4492 18.875 80.3086 18.7383 81.3008 18.7383C81.6914 18.7383 82.1328 18.8047 82.625 18.9375C83.125 19.0703 83.6016 19.2695 84.0547 19.5352V12.5742H86.4336V30H82.543ZM77.9141 24.0469C77.9141 24.3125 77.9297 24.6211 77.9609 24.9727C78 25.3164 78.0742 25.6758 78.1836 26.0508C78.293 26.418 78.4492 26.7812 78.6523 27.1406C78.8633 27.4922 79.1367 27.8125 79.4727 28.1016C79.8164 28.3828 80.2383 28.6094 80.7383 28.7812C81.2461 28.9531 81.8477 29.0391 82.543 29.0391H84.0547V20.4023C83.6797 20.1758 83.2891 20.0078 82.8828 19.8984C82.4766 19.7812 82.0273 19.7227 81.5352 19.7227C80.957 19.7227 80.4414 19.8438 79.9883 20.0859C79.543 20.3203 79.1641 20.6367 78.8516 21.0352C78.5469 21.4336 78.3125 21.8945 78.1484 22.418C77.9922 22.9336 77.9141 23.4766 77.9141 24.0469ZM94.0977 18.7383C94.8945 18.7383 95.5664 18.8867 96.1133 19.1836C96.668 19.4727 97.1172 19.8672 97.4609 20.3672C97.8125 20.8672 98.0625 21.4453 98.2109 22.1016C98.3672 22.75 98.4453 23.4375 98.4453 24.1641V24.7148H91.2266C91.2266 25.1523 91.2969 25.625 91.4375 26.1328C91.5781 26.6406 91.8047 27.1094 92.1172 27.5391C92.4375 27.9688 92.8477 28.3281 93.3477 28.6172C93.8555 28.8984 94.4766 29.0391 95.2109 29.0391H97.6484V30H95.1758C94.082 30 93.1367 29.875 92.3398 29.625C91.5508 29.375 90.8984 29.0117 90.3828 28.5352C89.875 28.0586 89.5 27.4766 89.2578 26.7891C89.0156 26.1016 88.8945 25.3164 88.8945 24.4336C88.8945 23.6992 89.0078 22.9883 89.2344 22.3008C89.4688 21.6133 89.8047 21.0078 90.2422 20.4844C90.6875 19.9531 91.2305 19.5312 91.8711 19.2188C92.5195 18.8984 93.2617 18.7383 94.0977 18.7383ZM93.9805 19.8047C93.4961 19.8047 93.082 19.9141 92.7383 20.1328C92.3945 20.3516 92.1094 20.6445 91.8828 21.0117C91.6641 21.3711 91.5 21.793 91.3906 22.2773C91.2891 22.7539 91.2344 23.25 91.2266 23.7656H96.1836V23.2617C96.168 22.8086 96.125 22.375 96.0547 21.9609C95.9922 21.5469 95.8789 21.1797 95.7148 20.8594C95.5508 20.5391 95.3281 20.2852 95.0469 20.0977C94.7734 19.9023 94.418 19.8047 93.9805 19.8047ZM98.3047 12.5742H100.871L105.23 26.0625L107.961 19.5352L105.699 12.5742H108.277L112.625 25.9922L117.711 12.5742H119.035L113.223 27.8438L113.949 30H111.336L108.535 21.3633L105.816 27.8672L106.508 30H103.918L98.3047 12.5742ZM122.926 19.7578C122.551 19.7578 122.223 19.7695 121.941 19.793C121.668 19.8164 121.418 19.8477 121.191 19.8867C120.965 19.9258 120.754 19.9727 120.559 20.0273C120.363 20.0742 120.168 20.125 119.973 20.1797L119.691 19.418C120.348 19.1758 121.031 19.0039 121.742 18.9023C122.461 18.793 123.141 18.7383 123.781 18.7383C124.602 18.7383 125.273 18.7812 125.797 18.8672C126.328 18.9531 126.742 19.0977 127.039 19.3008C127.336 19.4961 127.539 19.7617 127.648 20.0977C127.766 20.4258 127.824 20.8398 127.824 21.3398V30H123.98C122.934 30 122.039 29.8906 121.297 29.6719C120.562 29.4531 119.961 29.1602 119.492 28.793C119.023 28.418 118.68 27.9922 118.461 27.5156C118.242 27.0312 118.133 26.5234 118.133 25.9922C118.133 25.3359 118.234 24.7578 118.438 24.2578C118.648 23.7578 118.949 23.3398 119.34 23.0039C119.73 22.6602 120.207 22.4023 120.77 22.2305C121.332 22.0508 121.973 21.9609 122.691 21.9609C123.082 21.9609 123.523 22.0273 124.016 22.1602C124.516 22.293 124.992 22.4922 125.445 22.7578V21.293C125.445 21.1133 125.426 20.9336 125.387 20.7539C125.348 20.5664 125.246 20.4023 125.082 20.2617C124.918 20.1133 124.664 19.9922 124.32 19.8984C123.984 19.8047 123.52 19.7578 122.926 19.7578ZM125.445 29.0391V23.6133C125.07 23.3867 124.68 23.2188 124.273 23.1094C123.867 23 123.418 22.9453 122.926 22.9453C122.535 22.9453 122.188 23.0156 121.883 23.1562C121.586 23.2969 121.336 23.4961 121.133 23.7539C120.93 24.0117 120.773 24.3203 120.664 24.6797C120.562 25.0391 120.512 25.4375 120.512 25.875C120.512 26 120.516 26.1641 120.523 26.3672C120.539 26.5703 120.578 26.7891 120.641 27.0234C120.711 27.2578 120.812 27.4961 120.945 27.7383C121.086 27.9727 121.281 28.1875 121.531 28.3828C121.781 28.5781 122.098 28.7383 122.48 28.8633C122.863 28.9805 123.332 29.0391 123.887 29.0391H125.445ZM135.734 27.457L138.98 18.9609H140.105L136.355 28.8047L136.906 30H134.434L129.348 18.9609H131.844L135.734 27.457ZM146.246 18.7383C147.043 18.7383 147.715 18.8867 148.262 19.1836C148.816 19.4727 149.266 19.8672 149.609 20.3672C149.961 20.8672 150.211 21.4453 150.359 22.1016C150.516 22.75 150.594 23.4375 150.594 24.1641V24.7148H143.375C143.375 25.1523 143.445 25.625 143.586 26.1328C143.727 26.6406 143.953 27.1094 144.266 27.5391C144.586 27.9688 144.996 28.3281 145.496 28.6172C146.004 28.8984 146.625 29.0391 147.359 29.0391H149.797V30H147.324C146.23 30 145.285 29.875 144.488 29.625C143.699 29.375 143.047 29.0117 142.531 28.5352C142.023 28.0586 141.648 27.4766 141.406 26.7891C141.164 26.1016 141.043 25.3164 141.043 24.4336C141.043 23.6992 141.156 22.9883 141.383 22.3008C141.617 21.6133 141.953 21.0078 142.391 20.4844C142.836 19.9531 143.379 19.5312 144.02 19.2188C144.668 18.8984 145.41 18.7383 146.246 18.7383ZM146.129 19.8047C145.645 19.8047 145.23 19.9141 144.887 20.1328C144.543 20.3516 144.258 20.6445 144.031 21.0117C143.812 21.3711 143.648 21.793 143.539 22.2773C143.438 22.7539 143.383 23.25 143.375 23.7656H148.332V23.2617C148.316 22.8086 148.273 22.375 148.203 21.9609C148.141 21.5469 148.027 21.1797 147.863 20.8594C147.699 20.5391 147.477 20.2852 147.195 20.0977C146.922 19.9023 146.566 19.8047 146.129 19.8047Z" fill="#394149"/>
<path d="M8.47658 18.7254C9.32055 15.3365 11.2752 12.327 14.0292 10.1763C16.7832 8.02557 20.1783 6.85718 23.6738 6.85718C27.1694 6.85718 30.5645 8.02557 33.3185 10.1763C36.0725 12.327 38.0271 15.3365 38.8711 18.7254H37.4983C35.1826 18.6914 32.9144 19.3828 31.0122 20.7025C30.9024 20.782 30.7877 20.8546 30.669 20.9197H30.5089C30.3901 20.8546 30.2755 20.782 30.1657 20.7025C28.2466 19.4133 25.9864 18.7247 23.6738 18.7247C21.3612 18.7247 19.101 19.4133 17.182 20.7025C17.0721 20.782 16.9575 20.8546 16.8388 20.9197H16.6786C16.5599 20.8546 16.4453 20.782 16.3354 20.7025C14.4332 19.3828 12.165 18.6914 9.84931 18.7254H8.47658ZM35.0274 25.8911C35.7321 25.3429 36.6055 25.056 37.4983 25.0797H39.3401V21.4111H37.4983C35.9256 21.3921 34.389 21.8812 33.117 22.8054C32.4013 23.3326 31.5354 23.6171 30.6461 23.6171C29.7568 23.6171 28.891 23.3326 28.1752 22.8054C26.871 21.8984 25.3201 21.4121 23.731 21.4121C22.142 21.4121 20.591 21.8984 19.2868 22.8054C18.571 23.3326 17.7052 23.6171 16.8159 23.6171C15.9266 23.6171 15.0608 23.3326 14.345 22.8054C13.0574 21.8693 11.4986 21.3797 9.90651 21.4111H8.00757V25.0797H9.84931C10.7422 25.056 11.6156 25.3429 12.3202 25.8911C13.622 26.7988 15.1713 27.2854 16.7587 27.2854C18.3461 27.2854 19.8954 26.7988 21.1972 25.8911C21.9028 25.3446 22.7755 25.058 23.6681 25.0797C24.5613 25.0541 25.4353 25.3412 26.139 25.8911C27.4432 26.7982 28.9942 27.2844 30.5832 27.2844C32.1723 27.2844 33.7232 26.7982 35.0274 25.8911ZM35.0274 32.4511C35.7321 31.9029 36.6055 31.616 37.4983 31.6397H39.3401V27.9711H37.4983C35.9256 27.9522 34.389 28.4412 33.117 29.3654C32.4013 29.8926 31.5354 30.1771 30.6461 30.1771C29.7568 30.1771 28.891 29.8926 28.1752 29.3654C26.871 28.4584 25.3201 27.9723 23.731 27.9723C22.142 27.9723 20.591 28.4584 19.2868 29.3654C18.571 29.8926 17.7052 30.1771 16.8159 30.1771C15.9266 30.1771 15.0608 29.8926 14.345 29.3654C13.0574 28.4294 11.4986 27.9397 9.90651 27.9711H8.00757V31.6397H9.84931C10.7422 31.616 11.6156 31.9029 12.3202 32.4511C13.622 33.3588 15.1713 33.8454 16.7587 33.8454C18.3461 33.8454 19.8954 33.3588 21.1972 32.4511C21.9028 31.9046 22.7755 31.618 23.6681 31.6397C24.5613 31.6141 25.4353 31.9012 26.139 32.4511C27.4432 33.3582 28.9942 33.8444 30.5832 33.8444C32.1723 33.8444 33.7232 33.3582 35.0274 32.4511Z" fill="#394149"/>
</g>
<defs>
<clipPath id="clip0_45_131">
<rect width="151" height="40" fill="white"/>
</clipPath>
</defs>
</svg>
