<svg width="168" height="41" viewBox="0 0 168 41" fill="none" xmlns="http://www.w3.org/2000/svg">
<path d="M49.68 29V11.288L53.184 11V26.192H59.088L58.728 29H49.68ZM65.106 29.312C63.49 29.312 62.242 28.672 61.362 27.392C60.498 26.112 60.066 24.408 60.066 22.28C60.066 20.168 60.498 18.48 61.362 17.216C62.226 15.952 63.474 15.32 65.106 15.32C66.722 15.32 67.97 15.952 68.85 17.216C69.746 18.48 70.194 20.168 70.194 22.28C70.194 24.392 69.746 26.096 68.85 27.392C67.97 28.672 66.722 29.312 65.106 29.312ZM65.106 26.816C65.826 26.816 66.29 26.376 66.498 25.496C66.706 24.616 66.81 23.536 66.81 22.256C66.81 20.976 66.706 19.896 66.498 19.016C66.29 18.136 65.826 17.696 65.106 17.696C64.386 17.696 63.93 18.112 63.738 18.944C63.546 19.776 63.45 20.792 63.45 21.992C63.45 23.464 63.546 24.64 63.738 25.52C63.93 26.384 64.386 26.816 65.106 26.816ZM77.0636 33.2C75.2716 33.2 73.8796 32.944 72.8876 32.432C71.8956 31.936 71.3996 31.248 71.3996 30.368C71.3996 29.76 71.6236 29.248 72.0716 28.832C72.5196 28.4 73.0876 28.056 73.7756 27.8C73.1676 27.624 72.7116 27.4 72.4076 27.128C72.1036 26.856 71.9516 26.464 71.9516 25.952C71.9516 25.328 72.1676 24.768 72.5996 24.272C73.0316 23.76 73.5996 23.336 74.3036 23C72.8636 22.168 72.1436 21.008 72.1436 19.52C72.1436 18.624 72.3836 17.864 72.8636 17.24C73.3596 16.6 73.9916 16.12 74.7596 15.8C75.5436 15.48 76.3596 15.32 77.2076 15.32C78.4716 15.32 79.5916 15.656 80.5676 16.328C81.0476 15.896 81.5276 15.536 82.0076 15.248C82.5036 14.96 83.1196 14.816 83.8556 14.816V17.048C82.9276 17.048 82.2156 17.16 81.7196 17.384C81.9116 17.88 82.0396 18.272 82.1036 18.56C82.1836 18.848 82.2236 19.16 82.2236 19.496C82.2236 20.584 81.8556 21.536 81.1196 22.352C80.3836 23.152 79.1836 23.552 77.5196 23.552L76.6316 23.528C76.4876 23.512 76.3116 23.504 76.1036 23.504C75.8956 23.568 75.6956 23.712 75.5036 23.936C75.3116 24.144 75.2156 24.368 75.2156 24.608C75.2156 24.832 75.2956 25.024 75.4556 25.184C75.6156 25.344 75.8156 25.44 76.0556 25.472L79.8956 25.904C82.1196 26.16 83.2316 27.24 83.2316 29.144C83.2316 30.632 82.6556 31.68 81.5036 32.288C80.3676 32.896 78.8876 33.2 77.0636 33.2ZM77.1596 21.632C77.6556 21.632 78.0396 21.448 78.3116 21.08C78.5836 20.696 78.7196 20.16 78.7196 19.472C78.7196 18.768 78.5756 18.24 78.2876 17.888C77.9996 17.536 77.6316 17.36 77.1836 17.36C76.6876 17.36 76.2956 17.56 76.0076 17.96C75.7196 18.36 75.5756 18.856 75.5756 19.448C75.5756 19.992 75.6956 20.496 75.9356 20.96C76.1756 21.408 76.5836 21.632 77.1596 21.632ZM77.2076 30.752C79.0316 30.752 79.9436 30.256 79.9436 29.264C79.9436 28.992 79.8716 28.792 79.7276 28.664C79.5836 28.536 79.3516 28.448 79.0316 28.4C78.7276 28.336 78.2236 28.28 77.5196 28.232L75.5276 28.064C75.2396 28.16 74.9916 28.336 74.7836 28.592C74.5756 28.832 74.4716 29.104 74.4716 29.408C74.4716 29.84 74.6956 30.168 75.1436 30.392C75.6076 30.632 76.2956 30.752 77.2076 30.752ZM85.2771 13.76V10.28L88.6371 10.04V13.616L85.2771 13.76ZM85.2531 29.144V15.776L88.6131 15.488V28.856L85.2531 29.144ZM95.7338 29.312C94.7098 29.312 93.8298 28.992 93.0938 28.352C92.3738 27.712 91.8298 26.864 91.4618 25.808C91.0938 24.752 90.9098 23.608 90.9098 22.376C90.9098 21.16 91.0858 20.016 91.4378 18.944C91.8058 17.872 92.3578 17 93.0938 16.328C93.8298 15.656 94.7338 15.32 95.8058 15.32C96.6218 15.32 97.3498 15.528 97.9898 15.944C98.6458 16.344 99.1578 16.912 99.5258 17.648C99.8938 18.384 100.094 19.224 100.126 20.168L96.9338 20.312C96.9338 20.248 96.9018 19.992 96.8378 19.544C96.7898 19.096 96.6698 18.728 96.4778 18.44C96.3018 18.152 96.0698 18.008 95.7818 18.008C95.1418 18.008 94.7338 18.448 94.5578 19.328C94.3818 20.192 94.2938 21.168 94.2938 22.256C94.2938 23.328 94.3818 24.304 94.5578 25.184C94.7498 26.048 95.1898 26.48 95.8778 26.48C96.7418 26.48 97.1898 25.632 97.2218 23.936L100.054 24.248C99.8458 25.912 99.4298 27.176 98.8058 28.04C98.1818 28.888 97.1578 29.312 95.7338 29.312ZM104.765 29L101.093 11.144L104.933 11L106.829 21.776L108.869 11.144L111.749 11L113.645 21.896L115.925 11.144L119.165 11L115.301 29H111.821L109.925 18.008L107.981 29H104.765ZM125.223 29.312C123.607 29.312 122.359 28.672 121.479 27.392C120.615 26.112 120.183 24.408 120.183 22.28C120.183 20.168 120.615 18.48 121.479 17.216C122.343 15.952 123.591 15.32 125.223 15.32C126.839 15.32 128.087 15.952 128.967 17.216C129.863 18.48 130.311 20.168 130.311 22.28C130.311 24.392 129.863 26.096 128.967 27.392C128.087 28.672 126.839 29.312 125.223 29.312ZM125.223 26.816C125.943 26.816 126.407 26.376 126.615 25.496C126.823 24.616 126.927 23.536 126.927 22.256C126.927 20.976 126.823 19.896 126.615 19.016C126.407 18.136 125.943 17.696 125.223 17.696C124.503 17.696 124.047 18.112 123.855 18.944C123.663 19.776 123.567 20.792 123.567 21.992C123.567 23.464 123.663 24.64 123.855 25.52C124.047 26.384 124.503 26.816 125.223 26.816ZM132.597 15.776L135.957 15.488V17.672C136.437 16.984 137.029 16.432 137.733 16.016C138.453 15.584 139.365 15.368 140.469 15.368V18.656C139.893 18.656 139.133 18.76 138.189 18.968C137.261 19.16 136.517 19.504 135.957 20V28.856L132.597 29.144V15.776ZM149.5 29.312L146.764 22.592L145.66 24.056V29H142.3V11.432L145.66 11V19.928L149.092 15.488H152.74L148.948 20.36L152.476 28.304L149.5 29.312ZM158.332 29.312C157.004 29.312 155.932 29.016 155.116 28.424C154.3 27.816 153.772 26.976 153.532 25.904L156.148 25.04C156.212 25.344 156.332 25.616 156.508 25.856C156.876 26.384 157.412 26.648 158.116 26.648C158.516 26.648 158.9 26.56 159.268 26.384C159.636 26.208 159.82 25.936 159.82 25.568C159.82 25.072 159.476 24.688 158.788 24.416L155.956 23.264C155.204 22.944 154.628 22.464 154.228 21.824C153.828 21.184 153.628 20.4 153.628 19.472C153.628 18.608 153.836 17.864 154.252 17.24C154.684 16.616 155.244 16.144 155.932 15.824C156.636 15.488 157.388 15.32 158.188 15.32C159.196 15.32 160.124 15.616 160.972 16.208C161.82 16.784 162.388 17.576 162.676 18.584L159.892 19.448C159.828 19.176 159.716 18.904 159.556 18.632C159.204 18.088 158.756 17.816 158.212 17.816C157.812 17.816 157.468 17.912 157.18 18.104C156.892 18.28 156.748 18.544 156.748 18.896C156.748 19.312 157.14 19.696 157.924 20.048L160.324 21.032C161.172 21.432 161.836 21.936 162.316 22.544C162.796 23.152 163.036 23.968 163.036 24.992C163.036 25.92 162.812 26.712 162.364 27.368C161.916 28.008 161.332 28.496 160.612 28.832C159.892 29.152 159.132 29.312 158.332 29.312Z" fill="#212331"/>
<path d="M25.4099 1.97695L21.4769 0.923096L18.1625 13.2927L15.1702 2.12533L11.2371 3.17919L14.4701 15.2447L6.41746 7.19207L3.53827 10.0713L12.371 18.9041L1.37124 15.9567L0.317383 19.8897L12.336 23.1101C12.1984 22.5166 12.1256 21.8982 12.1256 21.2628C12.1256 16.7652 15.7716 13.1192 20.2692 13.1192C24.7668 13.1192 28.4128 16.7652 28.4128 21.2628C28.4128 21.8941 28.3409 22.5087 28.205 23.0987L39.1277 26.0254L40.1815 22.0924L28.1151 18.8592L39.1156 15.9116L38.0617 11.9786L25.9958 15.2116L34.0484 7.15901L31.1692 4.27982L22.459 12.9901L25.4099 1.97695Z" fill="#F97316"/>
<path d="M28.1944 23.1443C27.8572 24.5699 27.1453 25.8506 26.1685 26.8767L34.0815 34.7898L36.9607 31.9106L28.1944 23.1443Z" fill="#F97316"/>
<path d="M26.0884 26.9597C25.0998 27.9694 23.8505 28.7229 22.4495 29.1112L25.3289 39.8572L29.2619 38.8033L26.0884 26.9597Z" fill="#F97316"/>
<path d="M22.3026 29.1503C21.6526 29.3174 20.9713 29.4062 20.2692 29.4062C19.517 29.4062 18.7886 29.3042 18.0971 29.1133L15.2151 39.8691L19.1481 40.9229L22.3026 29.1503Z" fill="#F97316"/>
<path d="M17.958 29.0737C16.5784 28.6661 15.3513 27.903 14.3829 26.8904L6.45044 34.8229L9.32963 37.7021L17.958 29.0737Z" fill="#F97316"/>
<path d="M14.3168 26.8202C13.365 25.8012 12.6717 24.5376 12.3417 23.134L1.3833 26.0703L2.43715 30.0033L14.3168 26.8202Z" fill="#F97316"/>
</svg>
