<svg width="158" height="62" viewBox="0 0 158 62" fill="none" xmlns="http://www.w3.org/2000/svg">
<path fill-rule="evenodd" clip-rule="evenodd" d="M79.0001 58.0466C120.952 58.0466 154.961 45.7548 154.961 30.5921C154.961 15.4294 120.952 3.1377 79.0001 3.1377C37.0477 3.1377 3.03857 15.4294 3.03857 30.5921C3.03857 45.7548 37.0477 58.0466 79.0001 58.0466ZM27.3201 37.7472V18.8259H24.3078V37.7472H27.3201ZM29.1637 31.4401C29.1637 35.3058 31.6823 38.0525 35.5093 38.0525C39.3364 38.0525 41.8548 35.3058 41.8548 31.4401C41.8548 27.5745 39.3364 24.8279 35.5093 24.8279C31.6823 24.8279 29.1637 27.5745 29.1637 31.4401ZM48.5963 37.4929C45.1642 37.4929 42.8679 34.848 42.8679 31.1858C42.8679 27.4982 45.2136 24.777 48.695 24.777C50.4974 24.777 52.0282 25.5654 52.769 26.8879L52.9418 25.1839H55.6084V37.1115C55.6084 41.2569 53.09 43.9271 49.1395 43.9271C45.7814 43.9271 43.3371 41.791 42.9421 38.5102H45.9791C46.1518 40.1633 47.4358 41.1043 49.3122 41.1043C51.411 41.1043 52.6703 39.7309 52.6703 37.6709V35.5347C51.9048 36.7554 50.374 37.4929 48.5963 37.4929ZM57.0991 31.4401C57.0991 35.3058 59.6176 38.0525 63.4447 38.0525C67.2718 38.0525 69.7902 35.3058 69.7902 31.4401C69.7902 27.5745 67.2718 24.8279 63.4447 24.8279C59.6176 24.8279 57.0991 27.5745 57.0991 31.4401ZM74.8526 20.7588C74.8526 21.8015 74.0379 22.6153 73.0501 22.6153C72.0379 22.6153 71.2724 21.8015 71.2724 20.7588C71.2724 19.7415 72.0379 18.9276 73.0501 18.9276C74.0379 18.9276 74.8526 19.7415 74.8526 20.7588ZM74.5563 25.1839V37.7472H71.5441V25.1839H74.5563ZM77.1953 43.5711H80.1336V36.0179C80.899 37.3149 82.5532 38.0778 84.3804 38.0778C87.9853 38.0778 90.1333 35.2295 90.0839 31.313C90.0099 27.3711 87.8124 24.8024 84.3557 24.8024C82.5039 24.8024 80.8249 25.6417 80.0842 27.0913L79.9113 25.1839H77.1953V43.5711ZM95.7376 38.0778C92.8241 38.0778 90.9475 36.4756 90.8489 33.9833H93.5895C93.5895 35.0769 94.3549 35.7127 95.6882 35.7127C96.7993 35.7127 97.7129 35.255 97.7129 34.2631C97.7129 33.5509 97.219 33.1695 96.4289 32.9406L94.3056 32.3811C91.9599 31.7453 91.0463 30.3974 91.0463 28.7698C91.0463 26.3792 92.9969 24.8024 95.6141 24.8024C98.256 24.8024 100.058 26.3792 100.157 28.8716H97.4166C97.4166 27.778 96.6758 27.1167 95.5401 27.1167C94.4537 27.1167 93.787 27.7271 93.787 28.5918C93.787 29.4056 94.4043 29.7362 95.3178 29.9905L97.466 30.5246C99.466 31.0332 100.552 32.2539 100.552 34.0597C100.552 36.501 98.6017 38.0778 95.7376 38.0778ZM106.801 38.0778C108.454 38.0778 110.034 37.2894 110.751 36.1196L110.949 37.7472H113.763V25.1839H110.751V31.7708C110.751 34.0342 109.911 35.3058 107.936 35.3058C106.406 35.3058 105.344 34.5428 105.344 31.9488V25.1839H102.331V33.0423C102.331 36.0433 103.912 38.0778 106.801 38.0778ZM119.434 30.5246V37.7472H116.422V25.1839H119.187L119.335 26.6081C120.052 25.4891 121.336 24.8024 122.767 24.8024C124.792 24.8024 126.125 25.7179 126.792 27.193C127.385 25.7179 128.842 24.8024 130.693 24.8024C133.657 24.8024 135.211 26.6336 135.211 29.5328V37.7472H132.298V30.2448C132.298 28.4647 131.36 27.5237 129.903 27.5237C128.471 27.5237 127.335 28.4901 127.335 30.55V37.7472H124.397V30.2448C124.397 28.4647 123.459 27.5237 122.027 27.5237C120.595 27.5237 119.434 28.4901 119.434 30.5246Z" fill="#152C4F"/>
<path d="M144 33C144 41.2843 115.57 48 80.5 48C45.4299 48 10.5 35.2843 10.5 27C10.5 18.7157 38.9299 12 74 12C109.07 12 144 24.7157 144 33Z" fill="#152C4F"/>
<path d="M28.0234 32.1289L27.0391 38H22.3984L25.0703 22.0039H30.3555C31.5977 22.0039 32.5 22.0586 33.0625 22.168C33.6328 22.2695 34.2188 22.5234 34.8203 22.9297C35.4297 23.3281 35.9102 23.8672 36.2617 24.5469C36.6211 25.2188 36.8008 25.9414 36.8008 26.7148C36.8008 28.2148 36.3125 29.4922 35.3359 30.5469C34.3594 31.6016 32.9609 32.1289 31.1406 32.1289H28.0234ZM28.5977 28.707H29.6992C31.3789 28.707 32.2188 28.1367 32.2188 26.9961C32.2188 25.9727 31.5156 25.4609 30.1094 25.4609H29.1367L28.5977 28.707ZM38.6055 26.1641H42.5547L42.0859 29C42.9062 26.8672 44.1602 25.8008 45.8477 25.8008C45.9805 25.8008 46.1641 25.8203 46.3984 25.8594L45.8711 30.0781C45.4648 30.0547 45.1953 30.043 45.0625 30.043C44.0859 30.043 43.3672 30.2734 42.9062 30.7344C42.4531 31.1875 42.1289 31.9961 41.9336 33.1602L41.125 38H36.625L38.6055 26.1641ZM53.3594 21.6289L52.7734 25.1094H48.1797L48.7656 21.6289H53.3594ZM52.5977 26.1641L50.6172 38H46.0234L48.0039 26.1641H52.5977ZM55.0586 26.1641H59.0898L58.7852 27.9922C59.6602 26.5391 60.875 25.8125 62.4297 25.8125C63.9141 25.8125 64.9141 26.5391 65.4297 27.9922C66.1953 26.5781 67.375 25.8711 68.9688 25.8711C70.0156 25.8711 70.8516 26.168 71.4766 26.7617C72.1094 27.3477 72.4258 28.1406 72.4258 29.1406C72.4258 29.4609 72.3906 29.8477 72.3203 30.3008L71.0312 38H66.5312L67.7148 30.9805C67.7695 30.6211 67.7969 30.3438 67.7969 30.1484C67.7969 29.4609 67.4805 29.1172 66.8477 29.1172C66.4648 29.1172 66.1445 29.2617 65.8867 29.5508C65.6367 29.8398 65.4414 30.3945 65.3008 31.2148L64.1641 38H59.793L60.9766 30.9805C61.0469 30.5508 61.082 30.2461 61.082 30.0664C61.082 29.707 60.9805 29.4492 60.7773 29.293C60.5742 29.1367 60.3633 29.0586 60.1445 29.0586C59.9258 29.0586 59.6523 29.1523 59.3242 29.3398C58.9961 29.5195 58.7578 30.0664 58.6094 30.9805L57.4258 38H53.0781L55.0586 26.1641ZM86.5234 32.9609H78.3672C78.3281 33.2812 78.3086 33.5195 78.3086 33.6758C78.3086 34.1914 78.4727 34.5938 78.8008 34.8828C79.1367 35.1719 79.5586 35.3164 80.0664 35.3164C81.0273 35.3164 81.707 34.8203 82.1055 33.8281L86.0898 34.4727C85.5742 35.6289 84.7383 36.5664 83.582 37.2852C82.4336 37.9961 81.1562 38.3516 79.75 38.3516C77.9844 38.3516 76.5508 37.8516 75.4492 36.8516C74.3555 35.8438 73.8086 34.4727 73.8086 32.7383C73.8086 30.8555 74.457 29.2422 75.7539 27.8984C77.0508 26.5469 78.7461 25.8711 80.8398 25.8711C82.6133 25.8711 84.0234 26.3945 85.0703 27.4414C86.125 28.4883 86.6523 29.8789 86.6523 31.6133C86.6523 32.0039 86.6094 32.4531 86.5234 32.9609ZM82.2578 30.6758C82.2969 30.4336 82.3164 30.2461 82.3164 30.1133C82.3164 29.6914 82.1836 29.3242 81.918 29.0117C81.6602 28.6992 81.2969 28.543 80.8281 28.543C80.3281 28.543 79.875 28.7344 79.4688 29.1172C79.0625 29.4922 78.8125 30.0117 78.7188 30.6758H82.2578ZM102.238 25.7188L98.125 26.7617C98.0078 26.2852 97.7148 25.9102 97.2461 25.6367C96.7773 25.3633 96.2617 25.2266 95.6992 25.2266C94.6445 25.2266 94.1172 25.5781 94.1172 26.2812C94.1172 26.5078 94.1914 26.7031 94.3398 26.8672C94.4883 27.0312 94.9062 27.2344 95.5938 27.4766L98.1367 28.3789C98.8008 28.6133 99.418 28.9609 99.9883 29.4219C100.559 29.875 100.969 30.375 101.219 30.9219C101.469 31.4609 101.594 32.0391 101.594 32.6562C101.594 34.2734 100.957 35.6094 99.6836 36.6641C98.418 37.7188 96.7266 38.2461 94.6094 38.2461C92.7969 38.2461 91.2148 37.8789 89.8633 37.1445C88.5195 36.4102 87.582 35.2891 87.0508 33.7812L91.668 32.8789C92.0664 34.0117 93.0508 34.5781 94.6211 34.5781C95.2773 34.5781 95.75 34.4609 96.0391 34.2266C96.3359 33.9844 96.4844 33.7109 96.4844 33.4062C96.4844 33.2109 96.4258 33.0391 96.3086 32.8906C96.1992 32.7422 96.0781 32.6367 95.9453 32.5742C95.8203 32.5039 95.2148 32.2695 94.1289 31.8711C92.6602 31.332 91.6289 30.9062 91.0352 30.5938C90.4492 30.2734 89.957 29.8008 89.5586 29.1758C89.168 28.5508 88.9727 27.8164 88.9727 26.9727C88.9727 25.5117 89.5078 24.2773 90.5781 23.2695C91.6562 22.2539 93.3008 21.7461 95.5117 21.7461C97.1992 21.7461 98.6445 22.1016 99.8477 22.8125C101.051 23.5234 101.848 24.4922 102.238 25.7188ZM108.508 38.3516C106.859 38.3516 105.473 37.8633 104.348 36.8867C103.23 35.9023 102.672 34.5625 102.672 32.8672C102.672 30.8281 103.32 29.1523 104.617 27.8398C105.922 26.5273 107.566 25.8711 109.551 25.8711C111.363 25.8711 112.801 26.3867 113.863 27.418C114.934 28.4414 115.469 29.707 115.469 31.2148C115.469 33.457 114.781 35.207 113.406 36.4648C112.039 37.7227 110.406 38.3516 108.508 38.3516ZM108.695 35.4688C109.516 35.4688 110.07 34.8594 110.359 33.6406C110.656 32.4219 110.805 31.4023 110.805 30.582C110.805 29.332 110.352 28.707 109.445 28.707C108.641 28.707 108.082 29.332 107.77 30.582C107.465 31.8242 107.312 32.8398 107.312 33.6289C107.312 34.8555 107.773 35.4688 108.695 35.4688ZM126.191 26.1641L125.676 29.1875H122.734L121.258 38H116.91L118.387 29.1875H116.465L116.969 26.1641H118.891C119.102 24.7734 119.398 23.7891 119.781 23.2109C120.172 22.625 120.746 22.1602 121.504 21.8164C122.262 21.4727 123.219 21.3008 124.375 21.3008C125.391 21.3008 126.32 21.4062 127.164 21.6172L126.695 24.4648C126.086 24.3789 125.605 24.3359 125.254 24.3359C124.465 24.3359 123.934 24.4805 123.66 24.7695C123.395 25.0508 123.254 25.5156 123.238 26.1641H126.191ZM134.957 26.1641L134.441 29.1875H132.297L131.594 33.4062C131.523 33.8203 131.488 34.082 131.488 34.1914C131.488 34.7695 131.855 35.0586 132.59 35.0586C132.91 35.0586 133.281 35.0117 133.703 34.918L133.188 38C132.344 38.1797 131.535 38.2695 130.762 38.2695C129.801 38.2695 129.086 38.1484 128.617 37.9062C128.156 37.6641 127.777 37.3203 127.48 36.875C127.191 36.4297 127.047 35.8438 127.047 35.1172C127.047 34.8125 127.117 34.2422 127.258 33.4062L127.961 29.1875H126.332L126.836 26.1641H128.477L129.121 22.6602L133.41 22.5781L132.812 26.1641H134.957Z" fill="white" fill-opacity="0.92"/>
</svg>
