<svg width="208" height="68" viewBox="0 0 208 68" fill="none" xmlns="http://www.w3.org/2000/svg">
<path d="M16.7578 41.0312L14.7891 46.668C13.5 44.9258 12.0195 44.0547 10.3477 44.0547C9.41797 44.0547 8.95312 44.4062 8.95312 45.1094C8.95312 45.3281 9.09766 45.5508 9.38672 45.7773C9.68359 46.0039 10.4531 46.3594 11.6953 46.8438C13.0625 47.3828 14.1133 47.875 14.8477 48.3203C15.5898 48.7578 16.1445 49.3203 16.5117 50.0078C16.8789 50.6953 17.0625 51.4961 17.0625 52.4102C17.0625 54.3242 16.3359 55.7852 14.8828 56.793C13.4297 57.793 11.293 58.293 8.47266 58.293C5.30859 58.293 2.58203 57.8438 0.292969 56.9453L2.22656 50.9688C2.78906 51.8438 3.48438 52.5391 4.3125 53.0547C5.14844 53.5703 5.94922 53.8281 6.71484 53.8281C7.08984 53.8281 7.40234 53.7305 7.65234 53.5352C7.91016 53.3398 8.03906 53.1016 8.03906 52.8203C8.03906 52.5547 7.91406 52.3008 7.66406 52.0586C7.42188 51.8164 6.77344 51.4805 5.71875 51.0508C4.76562 50.668 3.97656 50.2969 3.35156 49.9375C2.72656 49.5703 2.18359 49.0508 1.72266 48.3789C1.26172 47.707 1.03125 46.8594 1.03125 45.8359C1.03125 43.8516 1.75391 42.3555 3.19922 41.3477C4.64453 40.3398 6.77734 39.8359 9.59766 39.8359C12.1758 39.8359 14.5625 40.2344 16.7578 41.0312ZM26.0508 43.8906V45.6602C27.2227 44.4023 28.6719 43.7734 30.3984 43.7734C32.4531 43.7734 33.9727 44.5859 34.957 46.2109C35.7617 45.3672 36.5664 44.75 37.3711 44.3594C38.1836 43.9688 39.0977 43.7734 40.1133 43.7734C41.6445 43.7734 42.8516 44.2422 43.7344 45.1797C44.6172 46.1172 45.0586 47.4375 45.0586 49.1406V58H38.2148V49.5742C38.2148 49.0742 38.0898 48.6875 37.8398 48.4141C37.5977 48.1328 37.2773 47.9922 36.8789 47.9922C36.4336 47.9922 35.9922 48.1445 35.5547 48.4492V58H28.7109V49.5742C28.7109 49.082 28.5898 48.6953 28.3477 48.4141C28.1133 48.1328 27.7891 47.9922 27.375 47.9922C26.9453 47.9922 26.5039 48.1523 26.0508 48.4727V58H18.8086V43.8906H26.0508ZM47.7539 49.6914V45.4492C49.8008 44.332 52.1211 43.7734 54.7148 43.7734C57.1836 43.7734 59.0039 44.3008 60.1758 45.3555C61.3477 46.4102 61.9336 48.0234 61.9336 50.1953V58H54.6914V56.9453C53.6211 57.7266 52.4453 58.1172 51.1641 58.1172C50.0859 58.1172 49.1875 57.7695 48.4688 57.0742C47.75 56.3711 47.3906 55.4883 47.3906 54.4258C47.3906 53.2148 47.8359 52.2305 48.7266 51.4727C49.6172 50.707 50.7812 50.3242 52.2188 50.3242C53.0625 50.3242 53.8867 50.4336 54.6914 50.6523C54.6914 49.9961 54.4375 49.4844 53.9297 49.1172C53.4297 48.75 52.7305 48.5664 51.832 48.5664C50.5039 48.5664 49.1445 48.9414 47.7539 49.6914ZM54.6914 54.8828V52.9141C54.2539 52.7656 53.8594 52.6914 53.5078 52.6914C53.0703 52.6914 52.7188 52.8047 52.4531 53.0312C52.1875 53.2578 52.0547 53.5547 52.0547 53.9219C52.0547 54.3047 52.1953 54.625 52.4766 54.8828C52.7656 55.1406 53.1289 55.2695 53.5664 55.2695C54.0117 55.2695 54.3867 55.1406 54.6914 54.8828ZM71.8477 46.9844C72.7695 44.8438 74.1055 43.7734 75.8555 43.7734C76.832 43.7734 77.6367 44.0938 78.2695 44.7344C78.9023 45.375 79.2188 46.1875 79.2188 47.1719C79.2188 48.2031 78.9062 49.0391 78.2812 49.6797C77.6641 50.3125 76.8555 50.6289 75.8555 50.6289C74.7148 50.6289 73.7383 50.1992 72.9258 49.3398C72.207 49.9492 71.8477 51.082 71.8477 52.7383V58H64.6055V43.8906H71.8477V46.9844ZM92.5664 43.8906V47.8516H89.543V50.875C89.543 51.8984 90 52.4102 90.9141 52.4102C91.5859 52.4102 92.1641 52.0742 92.6484 51.4023V56.9922C91.5078 57.7422 90.1211 58.1172 88.4883 58.1172C86.7461 58.1172 85.2773 57.5977 84.082 56.5586C82.8945 55.5195 82.3008 54.0898 82.3008 52.2695V47.8516H79.3477L89.543 39.8594V43.8906H92.5664ZM110.156 41.0312L108.188 46.668C106.898 44.9258 105.418 44.0547 103.746 44.0547C102.816 44.0547 102.352 44.4062 102.352 45.1094C102.352 45.3281 102.496 45.5508 102.785 45.7773C103.082 46.0039 103.852 46.3594 105.094 46.8438C106.461 47.3828 107.512 47.875 108.246 48.3203C108.988 48.7578 109.543 49.3203 109.91 50.0078C110.277 50.6953 110.461 51.4961 110.461 52.4102C110.461 54.3242 109.734 55.7852 108.281 56.793C106.828 57.793 104.691 58.293 101.871 58.293C98.707 58.293 95.9805 57.8438 93.6914 56.9453L95.625 50.9688C96.1875 51.8438 96.8828 52.5391 97.7109 53.0547C98.5469 53.5703 99.3477 53.8281 100.113 53.8281C100.488 53.8281 100.801 53.7305 101.051 53.5352C101.309 53.3398 101.438 53.1016 101.438 52.8203C101.438 52.5547 101.312 52.3008 101.062 52.0586C100.82 51.8164 100.172 51.4805 99.1172 51.0508C98.1641 50.668 97.375 50.2969 96.75 49.9375C96.125 49.5703 95.582 49.0508 95.1211 48.3789C94.6602 47.707 94.4297 46.8594 94.4297 45.8359C94.4297 43.8516 95.1523 42.3555 96.5977 41.3477C98.043 40.3398 100.176 39.8359 102.996 39.8359C105.574 39.8359 107.961 40.2344 110.156 41.0312ZM120.938 61.9609H113.062L115.969 55.0938L111 43.8906H118.207L119.906 47.6523L121.535 43.8906H128.566L120.938 61.9609ZM137.238 43.8906V45.6602C138.457 44.4023 139.914 43.7734 141.609 43.7734C143.258 43.7734 144.52 44.2344 145.395 45.1562C146.277 46.0703 146.719 47.4297 146.719 49.2344V58H139.875V49.7734C139.875 48.6016 139.43 48.0156 138.539 48.0156C138.109 48.0156 137.676 48.168 137.238 48.4727V58H129.996V43.8906H137.238ZM162.363 44.4414V50.6289C160.926 49.9414 159.605 49.5977 158.402 49.5977C157.707 49.5977 157.164 49.7109 156.773 49.9375C156.391 50.1562 156.199 50.4609 156.199 50.8516C156.199 51.7578 157.039 52.2109 158.719 52.2109C160.156 52.2109 161.371 51.9648 162.363 51.4727V57.5898C160.949 58.0039 159.438 58.2109 157.828 58.2109C155 58.2109 152.812 57.5312 151.266 56.1719C149.719 54.8125 148.945 53.0859 148.945 50.9922C148.945 48.8984 149.684 47.1445 151.16 45.7305C152.637 44.3086 154.617 43.5977 157.102 43.5977C158.828 43.5977 160.582 43.8789 162.363 44.4414Z" fill="#212331"/>
<g clip-path="url(#clip0_45_163)">
<path fill-rule="evenodd" clip-rule="evenodd" d="M162.284 17.2066L154.368 28.8158C156.706 30.3756 159.263 31.5761 161.954 32.3811C162.973 34.0224 164.355 35.4789 166.073 36.6253C172.537 40.9383 181.327 39.2298 185.705 32.8091C186.869 31.1025 187.604 29.2347 187.934 27.331C190.128 25.5766 192.049 23.5055 193.633 21.1834L181.954 13.3914C181.945 13.3855 181.936 13.3797 181.928 13.3739C175.463 9.06081 166.673 10.7694 162.295 17.1901C162.291 17.1956 162.287 17.2011 162.284 17.2066ZM184.163 29.8811C181.492 31.3907 178.588 32.4623 175.565 33.0499C172.542 33.6376 169.448 33.7317 166.406 33.3326C166.795 33.6789 167.212 34.0026 167.658 34.3002C172.83 37.7507 179.862 36.3838 183.364 31.2472C183.666 30.8043 183.932 30.3477 184.163 29.8811ZM164.8 18.5185C165.63 18.857 166.493 19.117 167.378 19.2937C169.196 19.657 171.071 19.6616 172.894 19.3072C174.717 18.9528 176.453 18.2464 178.003 17.2284C178.757 16.7331 179.46 16.1687 180.103 15.5438C175.036 12.342 168.298 13.6516 164.8 18.5185Z" fill="#212331"/>
</g>
<defs>
<clipPath id="clip0_45_163">
<rect width="40" height="28" fill="white" transform="translate(154 11)"/>
</clipPath>
</defs>
</svg>
