<svg width="90" height="44" viewBox="0 0 90 44" fill="none" xmlns="http://www.w3.org/2000/svg">
<rect width="18" height="18" transform="translate(0 13)" fill="white"/>
<path d="M4.36875 29.5L5.5875 24.2313L1.5 20.6875L6.9 20.2188L9 15.25L11.1 20.2188L16.5 20.6875L12.4125 24.2313L13.6313 29.5L9 26.7063L4.36875 29.5Z" fill="#212331"/>
<rect width="18" height="18" transform="translate(18 13)" fill="white"/>
<path d="M22.3688 29.5L23.5875 24.2313L19.5 20.6875L24.9 20.2188L27 15.25L29.1 20.2188L34.5 20.6875L30.4125 24.2313L31.6313 29.5L27 26.7063L22.3688 29.5Z" fill="#212331"/>
<rect width="18" height="18" transform="translate(54 13)" fill="white"/>
<path d="M58.3688 29.5L59.5875 24.2313L55.5 20.6875L60.9 20.2188L63 15.25L65.1 20.2188L70.5 20.6875L66.4125 24.2313L67.6313 29.5L63 26.7063L58.3688 29.5Z" fill="#212331"/>
<rect width="18" height="18" transform="translate(36 13)" fill="white"/>
<path d="M40.3688 29.5L41.5875 24.2313L37.5 20.6875L42.9 20.2188L45 15.25L47.1 20.2188L52.5 20.6875L48.4125 24.2313L49.6313 29.5L45 26.7063L40.3688 29.5Z" fill="#212331"/>
<rect width="18" height="18" transform="translate(72 13)" fill="white"/>
<path d="M76.3688 29.5L77.5875 24.2313L73.5 20.6875L78.9 20.2188L81 15.25L83.1 20.2188L88.5 20.6875L84.4125 24.2313L85.6313 29.5L81 26.7063L76.3688 29.5Z" fill="#212331"/>
</svg>
